<?xml version="1.0" encoding="utf-8"?>
<!-- Generator: Adobe Illustrator 16.0.0, SVG Export Plug-In . SVG Version: 6.00 Build 0)  -->
<!DOCTYPE svg PUBLIC "-//W3C//DTD SVG 1.1//EN" "http://www.w3.org/Graphics/SVG/1.1/DTD/svg11.dtd">
<svg version="1.1" id="Calque_1" xmlns="http://www.w3.org/2000/svg" xmlns:xlink="http://www.w3.org/1999/xlink" x="0px" y="0px"
	 width="500px" height="500px" viewBox="-27.29 170.945 500 500" enable-background="new -27.29 170.945 500 500"
	 xml:space="preserve">
<path fill="#8899A6" d="M353.279,447.265c-8.281,0-16.307,1.039-24.043,2.837L191.143,312.015
	c1.784-7.735,2.822-15.763,2.822-24.043c0-58.911-47.755-106.667-106.654-106.667c-12.008,0-27.984,12.195-14.684,25.496
	l39.899,39.899c0,0,13.3,26.6-13.299,53.188c-26.6,26.586-53.201,13.286-53.201,13.286L6.14,273.287
	c-13.299-13.3-25.494,2.609-25.494,14.685c0,58.911,47.754,106.666,106.666,106.666c8.281,0,16.309-1.039,24.044-2.822
	l138.073,138.072c-1.797,7.735-2.836,15.763-2.836,24.044c0,58.912,47.77,106.653,106.674,106.653
	c11.994,0,27.971-12.195,14.67-25.495l-39.898-39.9c0,0-13.301-26.601,13.299-53.187c26.602-26.587,53.188-13.299,53.188-13.299
	l39.9,39.899c13.312,13.299,25.508-2.61,25.508-14.672C459.933,495.021,412.179,447.265,353.279,447.265L353.279,447.265z"/>
</svg>
